<svg xmlns="http://www.w3.org/2000/svg" xmlns:xlink="http://www.w3.org/1999/xlink" width="200" height="200" viewBox="0 0 100 100"><g><rect width="100%" height="100%" fill="#ffffff"></rect><g transform="translate(50 50) scale(0.69 0.69) rotate(0) translate(-50 -50)" style="fill:#000000"><svg fill="#000000" xmlns="http://www.w3.org/2000/svg" xmlns:xlink="http://www.w3.org/1999/xlink" version="1.1" x="0px" y="0px" viewBox="0 0 32 32" enable-background="new 0 0 32 32" xml:space="preserve"><g display="none"><rect x="-258.545" y="-7.333" display="inline" fill="#000000" width="421.212" height="207"></rect></g><g><path d="M22.834,5.781h-1C21.834,3.145,19.699,1,17.075,1h-2.15c-2.624,0-4.759,2.145-4.759,4.781h-1   C9.166,2.593,11.749,0,14.925,0h2.15C20.251,0,22.834,2.593,22.834,5.781z"></path><path d="M27.375,32H4.625V12.213c0-3.981,3.227-7.221,7.192-7.221h8.365c3.966,0,7.192,3.239,7.192,7.221V32z M5.625,31h20.75   V12.213c0-3.43-2.778-6.221-6.192-6.221h-8.365c-3.414,0-6.192,2.791-6.192,6.221V31z"></path><path d="M19.208,14.243h-6.416c-0.827,0-1.5-0.673-1.5-1.5V9.409c0-0.827,0.673-1.5,1.5-1.5h6.416c0.827,0,1.5,0.673,1.5,1.5v3.333   C20.708,13.57,20.035,14.243,19.208,14.243z M12.792,8.909c-0.275,0-0.5,0.224-0.5,0.5v3.333c0,0.276,0.225,0.5,0.5,0.5h6.416   c0.275,0,0.5-0.224,0.5-0.5V9.409c0-0.276-0.225-0.5-0.5-0.5H12.792z"></path><path d="M21.5,28.917h-11c-1.379,0-2.5-1.121-2.5-2.5V16.234h16v10.183C24,27.796,22.879,28.917,21.5,28.917z M9,17.234v9.183   c0,0.827,0.673,1.5,1.5,1.5h11c0.827,0,1.5-0.673,1.5-1.5v-9.183H9z"></path><rect x="11.25" y="16.946" width="1" height="3.417"></rect><path d="M5.5,28.917H3.083c-1.379,0-2.5-1.121-2.5-2.5v-5.705c0-1.379,1.121-2.5,2.5-2.5H5.5v1H3.083c-0.827,0-1.5,0.673-1.5,1.5   v5.705c0,0.827,0.673,1.5,1.5,1.5H5.5V28.917z"></path><path d="M28.917,28.917H26.5v-1h2.417c0.827,0,1.5-0.673,1.5-1.5v-5.705c0-0.827-0.673-1.5-1.5-1.5H26.5v-1h2.417   c1.379,0,2.5,1.121,2.5,2.5v5.705C31.417,27.796,30.296,28.917,28.917,28.917z"></path></g><g display="none"><path display="inline" fill="#000000" stroke="#000000" stroke-width="2" stroke-miterlimit="10" d="M9.666,6.281L9.666,6.281   C9.666,3.376,12.032,1,14.924,1h2.151c2.892,0,5.258,2.376,5.258,5.281v0"></path><path display="inline" fill="#000000" d="M5.5,28.462H3.083c-1.1,0-2-0.9-2-2v-5.705c0-1.1,0.9-2,2-2H5.5"></path><path display="inline" fill="#000000" d="M26.5,28.462h2.417c1.1,0,2-0.9,2-2v-5.705c0-1.1-0.9-2-2-2H26.5"></path><path display="inline" fill="#000000" d="M27.077,32V12.354c0-3.765-3.068-6.846-6.817-6.846H11.74   c-3.749,0-6.817,3.081-6.817,6.846V32H27.077z"></path><path display="inline" fill="#000000" d="M19.208,13.743h-6.417c-0.55,0-1-0.45-1-1V9.409c0-0.55,0.45-1,1-1h6.417   c0.55,0,1,0.45,1,1v3.333C20.208,13.293,19.758,13.743,19.208,13.743z"></path><path display="inline" fill="#000000" d="M23.5,16.734v9.682c0,1.1-0.9,2-2,2h-11c-1.1,0-2-0.9-2-2v-9.682H23.5z"></path><line display="inline" fill="#000000" stroke="#000000" stroke-miterlimit="10" x1="11.75" y1="16.734" x2="11.75" y2="20.363"></line></g><g display="none"><path display="inline" fill="#000000" d="M23.334,6.281h-2c0-2.36-1.91-4.281-4.259-4.281h-2.15c-2.349,0-4.259,1.92-4.259,4.281   h-2C8.666,2.817,11.474,0,14.925,0h2.15C20.526,0,23.334,2.817,23.334,6.281z"></path><path display="inline" d="M5.5,28.462H3.083c-1.1,0-2-0.9-2-2v-5.705c0-1.1,0.9-2,2-2H5.5"></path><path display="inline" d="M26.5,28.462h2.417c1.1,0,2-0.9,2-2v-5.705c0-1.1-0.9-2-2-2H26.5"></path><path display="inline" d="M20.26,5.508H11.74c-3.749,0-6.817,3.081-6.817,6.846V32h22.154V12.354   C27.077,8.589,24.01,5.508,20.26,5.508z M11.792,9.409c0-0.55,0.45-1,1-1h6.417c0.55,0,1,0.45,1,1v3.333c0,0.55-0.45,1-1,1h-6.417   c-0.55,0-1-0.45-1-1V9.409z M23.5,26.417c0,1.1-0.9,2-2,2h-11c-1.1,0-2-0.9-2-2v-9.682h15V26.417z"></path><rect x="11.25" y="16.734" display="inline" width="1" height="3.629"></rect></g></svg></g></g></svg>