<svg xmlns="http://www.w3.org/2000/svg" xmlns:xlink="http://www.w3.org/1999/xlink" width="200" height="200" viewBox="0 0 100 100"><g><rect width="100%" height="100%" fill="#ffffff"></rect><g transform="translate(50 50) scale(0.69 0.69) rotate(0) translate(-50 -50)" style="fill:#000000"><svg fill="#000000" xmlns="http://www.w3.org/2000/svg" xmlns:xlink="http://www.w3.org/1999/xlink" version="1.1" x="0px" y="0px" viewBox="0 0 512 512" enable-background="new 0 0 512 512" xml:space="preserve"><g><path d="M329.7,272.4c49.7,0,90.1-40.4,90.1-90.1s-40.4-90.1-90.1-90.1s-90.1,40.4-90.1,90.1S280,272.4,329.7,272.4z M283.4,239.5   c1-24.7,21.4-44.5,46.3-44.5s45.3,19.8,46.3,44.5c-12.7,10.3-28.8,16.5-46.3,16.5S296.1,249.8,283.4,239.5z M308.8,157.7   c0-11.5,9.4-20.9,20.9-20.9c11.5,0,20.9,9.4,20.9,20.9c0,11.5-9.4,20.9-20.9,20.9C318.2,178.6,308.8,169.2,308.8,157.7z    M329.7,108.5c40.7,0,73.7,33.1,73.7,73.7c0,15.7-5,30.2-13.3,42.2c-5-17.9-17.8-32.5-34.4-40.1c6.9-6.8,11.3-16.2,11.3-26.7   c0-20.6-16.7-37.3-37.3-37.3c-20.6,0-37.3,16.7-37.3,37.3c0,10.5,4.3,19.9,11.3,26.7c-16.6,7.6-29.3,22.2-34.4,40.1   c-8.4-12-13.3-26.5-13.3-42.2C256,141.6,289.1,108.5,329.7,108.5z"></path><path d="M116.7,2c-22.6,0-41,18.4-41,41v49.2H59.4c-13.6,0-24.6,11-24.6,24.6s11,24.6,24.6,24.6h16.4v57.4H59.4   c-13.6,0-24.6,11-24.6,24.6s11,24.6,24.6,24.6h16.4v57.4H59.4c-13.6,0-24.6,11-24.6,24.6c0,13.6,11,24.6,24.6,24.6h16.4V469   c0,22.6,18.4,41,41,41h360.5V2H116.7z M51.2,116.7c0-4.5,3.7-8.2,8.2-8.2h51l2.4-2.7c3.2-3.5,7.5-5.5,12.1-5.5   c9,0,16.4,7.3,16.4,16.4s-7.3,16.4-16.4,16.4c-4.6,0-8.9-1.9-12.1-5.5l-2.4-2.7h-51C54.8,124.9,51.2,121.2,51.2,116.7z M51.2,223.2   c0-4.5,3.7-8.2,8.2-8.2h51l2.4-2.7c3.2-3.5,7.5-5.5,12.1-5.5c9,0,16.4,7.3,16.4,16.4s-7.3,16.4-16.4,16.4c-4.6,0-8.9-1.9-12.1-5.5   l-2.4-2.7h-51C54.8,231.4,51.2,227.7,51.2,223.2z M51.2,329.7c0-4.5,3.7-8.2,8.2-8.2h51l2.4-2.7c3.2-3.5,7.5-5.5,12.1-5.5   c9,0,16.4,7.3,16.4,16.4s-7.3,16.4-16.4,16.4c-4.6,0-8.9-1.9-12.1-5.5l-2.4-2.7h-51C54.8,337.9,51.2,334.3,51.2,329.7z    M103.4,354.3c6,5.2,13.6,8.2,21.5,8.2c18.1,0,32.8-14.7,32.8-32.8c0-18.1-14.7-32.8-32.8-32.8c-7.9,0-15.6,2.9-21.5,8.2H92.1   v-57.4h11.2c6,5.2,13.6,8.2,21.5,8.2c18.1,0,32.8-14.7,32.8-32.8s-14.7-32.8-32.8-32.8c-7.9,0-15.6,2.9-21.5,8.2H92.1v-57.4h11.2   c6,5.2,13.6,8.2,21.5,8.2c18.1,0,32.8-14.7,32.8-32.8S143,83.9,124.9,83.9c-7.9,0-15.6,2.9-21.5,8.2H92.1V43   c0-13.6,11-24.6,24.6-24.6h65.5v409.7h-65.5c-9.3,0-17.7,3.2-24.6,8.4v-82.1H103.4z M460.8,493.6H116.7c-13.6,0-24.6-11-24.6-24.6   c0-13.6,11-24.6,24.6-24.6h344.1V493.6z M460.8,428.1H198.6V18.4h262.2V428.1z"></path><rect x="247.8" y="313.4" width="163.9" height="16.4"></rect><rect x="288.8" y="354.3" width="16.4" height="16.4"></rect><rect x="321.5" y="354.3" width="16.4" height="16.4"></rect><rect x="354.3" y="354.3" width="16.4" height="16.4"></rect></g></svg></g></g></svg>