<svg xmlns="http://www.w3.org/2000/svg" xmlns:xlink="http://www.w3.org/1999/xlink" width="200" height="200" viewBox="0 0 100 100"><g><rect width="100%" height="100%" fill="#ffffff"></rect><g transform="translate(50 50) scale(0.69 0.69) rotate(0) translate(-50 -50)" style="fill:#000000"><svg fill="#000000" xmlns="http://www.w3.org/2000/svg" data-name="Layer 1" viewBox="0 0 100 100" x="0px" y="0px"><title>102all</title><path d="M84.72,29.79a2,2,0,0,0-.57-1.4L61.21,5a2,2,0,0,0-1.43-.6H25.28a10,10,0,0,0-10,10V85.63a10,10,0,0,0,10,10H74.72a10,10,0,0,0,10-10ZM61.62,11.11,78.91,28.75H64.62a3,3,0,0,1-3-3Zm13.1,80.52H25.28a6,6,0,0,1-6-6V14.37a6,6,0,0,1,6-6H57.62V25.75a7,7,0,0,0,7,7h16.1V85.63A6,6,0,0,1,74.72,91.63Z"></path><path d="M69.5,48.26H42.55a2,2,0,0,0,0,4H69.5a2,2,0,0,0,0-4Z"></path><path d="M30.5,47.26a3,3,0,0,0,0,6h.05a3,3,0,0,0,3-3A3,3,0,0,0,30.5,47.26Z"></path><path d="M69.5,61.26H42.55a2,2,0,0,0,0,4H69.5a2,2,0,0,0,0-4Z"></path><path d="M30.5,60.26a3,3,0,0,0,0,6h.05a3,3,0,0,0,3-3A3,3,0,0,0,30.5,60.26Z"></path><path d="M69.5,74.26H42.55a2,2,0,0,0,0,4H69.5a2,2,0,0,0,0-4Z"></path><path d="M30.5,73.26a3,3,0,0,0,0,6h.05a3,3,0,0,0,3-3A3,3,0,0,0,30.5,73.26Z"></path></svg></g></g></svg>