<svg xmlns="http://www.w3.org/2000/svg" xmlns:xlink="http://www.w3.org/1999/xlink" width="200" height="200" viewBox="0 0 100 100"><g><rect width="100%" height="100%" fill="#ffffff"></rect><g transform="translate(50 50) scale(0.69 0.69) rotate(0) translate(-50 -50)" style="fill:#000000"><svg fill="#000000" xmlns="http://www.w3.org/2000/svg" xmlns:xlink="http://www.w3.org/1999/xlink" version="1.1" x="0px" y="0px" viewBox="0 0 95 95" enable-background="new 0 0 95 95" xml:space="preserve"><g><path d="M47.5,17.121c-23.894,0-43.264,11.486-43.264,25.656c0,10.249,10.138,19.092,24.789,23.201v11.9l9.947-9.947   c2.757,0.328,5.607,0.502,8.527,0.502c23.894,0,43.264-11.487,43.264-25.656C90.764,28.607,71.394,17.121,47.5,17.121z M43.646,47   h-8.891v8.891h-8.5V47h-8.891v-8.5h8.891v-8.891h8.5V38.5h8.891V47z M64.356,29.469c2.486,0,4.506,2.016,4.506,4.506   c0,2.491-2.02,4.51-4.506,4.51c-2.491,0-4.505-2.019-4.505-4.51C59.852,31.484,61.865,29.469,64.356,29.469z M55.579,47.258   c-2.489,0-4.506-2.018-4.506-4.506s2.017-4.511,4.506-4.511c2.491,0,4.508,2.022,4.508,4.511S58.07,47.258,55.579,47.258z    M64.356,56.031c-2.491,0-4.505-2.018-4.505-4.506c0-2.486,2.014-4.506,4.505-4.506c2.486,0,4.506,2.02,4.506,4.506   C68.862,54.014,66.843,56.031,64.356,56.031z M73.13,47.258c-2.486,0-4.506-2.018-4.506-4.506s2.02-4.511,4.506-4.511   c2.494,0,4.505,2.022,4.505,4.511S75.624,47.258,73.13,47.258z"></path></g></svg></g></g></svg>