<svg xmlns="http://www.w3.org/2000/svg" xmlns:xlink="http://www.w3.org/1999/xlink" width="200" height="200" viewBox="0 0 100 100"><g><rect width="100%" height="100%" fill="#ffffff"></rect><g transform="translate(50 50) scale(0.69 0.69) rotate(0) translate(-50 -50)" style="fill:#000000"><svg fill="#000000" xmlns="http://www.w3.org/2000/svg" xmlns:xlink="http://www.w3.org/1999/xlink" xmlns:a="http://ns.adobe.com/AdobeSVGViewerExtensions/3.0/" version="1.1" x="0px" y="0px" viewBox="-5 -15.5 100 100" overflow="visible" enable-background="new -5 -15.5 100 100" xml:space="preserve"><path d="M34.118,3.5H21.882C20.847,3.5,20,4.36,20,5.412v61.176c0,1.052,0.847,1.912,1.882,1.912h12.235  c1.035,0,1.882-0.86,1.882-1.912V5.412C36,4.36,35.153,3.5,34.118,3.5z M33.176,17.5H22.824v-2h10.353V17.5z M33.176,12.5H22.824v-2  h10.353V12.5z M70.928,63.352c0.284,1.062-0.3,2.151-1.295,2.419l-11.757,3.169c-0.995,0.268-2.041-0.383-2.324-1.446L39.072,5.648  c-0.284-1.063,0.299-2.152,1.293-2.42l11.758-3.168c0.994-0.269,2.041,0.382,2.324,1.445L70.928,63.352z M74,63.5h16v3  c0,1.1-0.848,2-1.884,2H75.884c-1.036,0-1.884-0.9-1.884-2V63.5z M74,7.5h16v54H74V7.5z M90,2.5v3H74v-3c0-1.1,0.848-2,1.884-2  h12.232C89.152,0.5,90,1.4,90,2.5z M0,12.5h16v43.833H0V12.5z M0,60.333h16V66.5c0,1.1-0.847,2-1.882,2H1.882  C0.847,68.5,0,67.6,0,66.5V60.333z M16,2.5v6H0v-6c0-1.1,0.847-2,1.882-2h12.235C15.153,0.5,16,1.4,16,2.5z"></path></svg></g></g></svg>