<svg xmlns="http://www.w3.org/2000/svg" xmlns:xlink="http://www.w3.org/1999/xlink" width="200" height="200" viewBox="0 0 100 100"><g><rect width="100%" height="100%" fill="#ffffff"></rect><g transform="translate(50 50) scale(0.69 0.69) rotate(0) translate(-50 -50)" style="fill:#000000"><svg fill="#000000" xmlns="http://www.w3.org/2000/svg" xmlns:xlink="http://www.w3.org/1999/xlink" version="1.1" x="0px" y="0px" viewBox="0 0 100 100" enable-background="new 0 0 100 100" xml:space="preserve"><path d="M21,15H11v-4h10V15z M95,5v90H5V5H95z M91,19H9v72h82V19z M91,9H9v8h82V9z M89,12h-8v2h8V12z M59,12h-8v2h8V12z M79,12h-8v2  h8V12z M69,12h-8v2h8V12z M31,56.2h18v-12H31V56.2z M59,83c-1.1,0-2,0.9-2,2c0,1.1,0.9,2,2,2s2-0.9,2-2C61,83.9,60.1,83,59,83z   M32,40.2v2h9v-2H32z M52,76.2h9v-2h-9V76.2z M72,76.2h9v-2h-9V76.2z M89,27.2H71v12h18V27.2z M67,85c0,1.1-0.9,2-2,2s-2-0.9-2-2  c0-1.1,0.9-2,2-2S67,83.9,67,85z M66,85c0-0.6-0.4-1-1-1s-1,0.4-1,1c0,0.6,0.4,1,1,1S66,85.6,66,85z M81,42.2v-2h-9v2H81z M37,85  c0,1.1-0.9,2-2,2s-2-0.9-2-2c0-1.1,0.9-2,2-2S37,83.9,37,85z M36,85c0-0.6-0.4-1-1-1s-1,0.4-1,1c0,0.6,0.4,1,1,1S36,85.6,36,85z   M41,74.2h-9v2h9V74.2z M12,76.2h9v-2h-9V76.2z M41,83c-1.1,0-2,0.9-2,2c0,1.1,0.9,2,2,2s2-0.9,2-2C43,83.9,42.1,83,41,83z M32,57.2  v2h9v-2H32z M31,73.2h18v-12H31V73.2z M47,83c-1.1,0-2,0.9-2,2c0,1.1,0.9,2,2,2s2-0.9,2-2C49,83.9,48.1,83,47,83z M21,59.2v-2h-9v2  H21z M31,39.2h18v-12H31V39.2z M31,21.2h-9v2h9V21.2z M42,21.2h-9v2h9V21.2z M29,27.2H11v12h18V27.2z M20,21.2h-9v2h9V21.2z   M21,42.2v-2h-9v2H21z M89,44.2H71v12h18V44.2z M29,44.2H11v12h18V44.2z M29,61.2H11v12h18V61.2z M89,61.2H71v12h18V61.2z M61,42.2  v-2h-9v2H61z M53,87c1.1,0,2-0.9,2-2c0-1.1-0.9-2-2-2s-2,0.9-2,2C51,86.1,51.9,87,53,87z M81,59.2v-2h-9v2H81z M69,27.2H51v12h18  V27.2z M69,61.2H51v12h18V61.2z M69,44.2H51v12h18V44.2z M61,59.2v-2h-9v2H61z"></path></svg></g></g></svg>