<svg xmlns="http://www.w3.org/2000/svg" xmlns:xlink="http://www.w3.org/1999/xlink" width="200" height="200" viewBox="0 0 100 100"><g><rect width="100%" height="100%" fill="#ffffff"></rect><g transform="translate(50 50) scale(0.69 0.69) rotate(0) translate(-50 -50)" style="fill:#000000"><svg fill="#000000" xmlns:x="http://ns.adobe.com/Extensibility/1.0/" xmlns:i="http://ns.adobe.com/AdobeIllustrator/10.0/" xmlns:graph="http://ns.adobe.com/Graphs/1.0/" xmlns="http://www.w3.org/2000/svg" xmlns:xlink="http://www.w3.org/1999/xlink" version="1.1" x="0px" y="0px" viewBox="0 0 100 100" style="enable-background:new 0 0 100 100;" xml:space="preserve"><g><g i:extraneous="self"><g><path d="M50.7,3.2C25,3.2,4,24.2,4,50c0,10.1,3.3,20,9.3,28l-8.8,8.1c-1.9,1.7-2.5,4.4-1.6,6.8c0.9,2.4,3.2,3.9,5.7,3.9h42.1     c25.8,0,46.8-21,46.8-46.8S76.5,3.2,50.7,3.2z M50.7,90.6L8.7,90.7l11-10c1.2-1.1,1.3-3,0.3-4.3C13.6,69,10.2,59.7,10.2,50     c0-22.4,18.2-40.6,40.6-40.6S91.3,27.6,91.3,50S73.1,90.6,50.7,90.6z"></path><path d="M39.8,36.6c-2,0-3.8,0.8-5.3,2.3c-1.5,1.5-2.3,3.2-2.3,5.2c0,1.8,0.6,3.5,1.9,5c1.2,1.5,3.3,1.9,5,1.9     c-0.3,2.4-1.6,5-3,6.7c-0.2,0.3-0.4,0.6-0.7,0.8c-0.4,0.4-0.3,1,0,1.4l2.8,3c0.4,0.4,1.1,0.4,1.5,0c1.2-1.3,2.3-2.8,3.4-4.5     c2.8-4.4,4.2-8.8,4.2-13.2c0-2.6-0.8-4.7-2.3-6.3C43.6,37.4,41.9,36.6,39.8,36.6z"></path><path d="M61.7,36.6c-2,0-3.8,0.8-5.3,2.3c-1.5,1.5-2.3,3.2-2.3,5.2c0,1.8,0.6,3.5,1.9,5c1.2,1.5,3.3,1.9,5,1.9     c-0.3,2.4-1.6,5-3,6.7c-0.2,0.3-0.4,0.6-0.7,0.8c-0.4,0.4-0.3,1,0,1.4l2.8,3c0.4,0.4,1.1,0.4,1.5,0c1.2-1.3,2.3-2.8,3.4-4.5     c2.8-4.4,4.2-8.8,4.2-13.2c0-2.6-0.8-4.7-2.3-6.3C65.5,37.4,63.7,36.6,61.7,36.6z"></path></g></g></g></svg></g></g></svg>