<svg xmlns="http://www.w3.org/2000/svg" xmlns:xlink="http://www.w3.org/1999/xlink" width="200" height="200" viewBox="0 0 100 100"><g><rect width="100%" height="100%" fill="#ffffff"></rect><g transform="translate(50 50) scale(0.69 0.69) rotate(0) translate(-50 -50)" style="fill:#000000"><svg fill="#000000" xmlns="http://www.w3.org/2000/svg" xmlns:xlink="http://www.w3.org/1999/xlink" version="1.1" x="0px" y="0px" viewBox="0 0 70 70" style="enable-background:new 0 0 70 70;" xml:space="preserve"><path d="M23.0209961,3c0-0.5527344-0.4477539-1-1-1H5.6875c-0.5522461,0-1,0.4472656-1,1v17.3925781c0,0.5527344,0.4477539,1,1,1  h16.3334961c0.5522461,0,1-0.4472656,1-1V3z M11.2758789,10.1064453c0-1.421875,1.1567383-2.578125,2.578125-2.578125  s2.578125,1.15625,2.578125,2.578125s-1.1567383,2.578125-2.578125,2.578125S11.2758789,11.5283203,11.2758789,10.1064453z   M13.8540039,14.6845703c3.522644,0,6.4534912,2.0366211,7.0497437,4.7080078H6.8047485  C7.4009399,16.7211914,10.3313599,14.6845703,13.8540039,14.6845703z M17.1899414,13.2207031  c0.7644653-0.8184814,1.2421875-1.9085693,1.2421875-3.1142578c0-2.5244141-2.0537109-4.578125-4.578125-4.578125  s-4.578125,2.0537109-4.578125,4.578125c0,1.2056885,0.4777222,2.2958984,1.2421875,3.1142578  c-1.5143433,0.5-2.8322144,1.3260498-3.8305664,2.3795166V4h14.3334961v11.6002197  C20.022583,14.5467529,18.7044067,13.7207031,17.1899414,13.2207031z"></path><path d="M29.1875,8.9775391h35.125c0.5522461,0,1-0.4472656,1-1s-0.4477539-1-1-1h-35.125c-0.5522461,0-1,0.4472656-1,1  S28.6352539,8.9775391,29.1875,8.9775391z"></path><path d="M29.1875,16.4150391h23.25c0.5522461,0,1-0.4472656,1-1s-0.4477539-1-1-1h-23.25c-0.5522461,0-1,0.4472656-1,1  S28.6352539,16.4150391,29.1875,16.4150391z"></path><path d="M23.0209961,26.3037109c0-0.5527344-0.4477539-1-1-1H5.6875c-0.5522461,0-1,0.4472656-1,1v17.3925781  c0,0.5527344,0.4477539,1,1,1h16.3334961c0.5522461,0,1-0.4472656,1-1V26.3037109z M11.2758789,33.4101562  c0-1.421875,1.1567383-2.578125,2.578125-2.578125s2.578125,1.15625,2.578125,2.578125s-1.1567383,2.578125-2.578125,2.578125  S11.2758789,34.8320312,11.2758789,33.4101562z M13.8540039,37.9882812c3.522644,0,6.4534912,2.0366211,7.0497437,4.7080078  H6.8047485C7.4009399,40.0249023,10.3313599,37.9882812,13.8540039,37.9882812z M17.1899414,36.5244141  c0.7644653-0.8184814,1.2421875-1.9085693,1.2421875-3.1142578c0-2.5244141-2.0537109-4.578125-4.578125-4.578125  s-4.578125,2.0537109-4.578125,4.578125c0,1.2056885,0.4777222,2.2958984,1.2421875,3.1142578  c-1.5143433,0.5-2.8322144,1.3260498-3.8305664,2.3795166V27.3037109h14.3334961v11.6002197  C20.022583,37.8504639,18.7044067,37.0244141,17.1899414,36.5244141z"></path><path d="M29.1875,32.28125h35.125c0.5522461,0,1-0.4472656,1-1s-0.4477539-1-1-1h-35.125c-0.5522461,0-1,0.4472656-1,1  S28.6352539,32.28125,29.1875,32.28125z"></path><path d="M29.1875,39.71875h23.25c0.5522461,0,1-0.4472656,1-1s-0.4477539-1-1-1h-23.25c-0.5522461,0-1,0.4472656-1,1  S28.6352539,39.71875,29.1875,39.71875z"></path><path d="M22.0209961,48.6074219H5.6875c-0.5522461,0-1,0.4472656-1,1V67c0,0.5527344,0.4477539,1,1,1h16.3334961  c0.5522461,0,1-0.4472656,1-1V49.6074219C23.0209961,49.0546875,22.5732422,48.6074219,22.0209961,48.6074219z   M11.2758789,56.7138672c0-1.421875,1.1567383-2.578125,2.578125-2.578125s2.578125,1.15625,2.578125,2.578125  s-1.1567383,2.578125-2.578125,2.578125S11.2758789,58.1357422,11.2758789,56.7138672z M13.8540039,61.2919922  c3.522644,0,6.4534912,2.0366211,7.0497437,4.7080078H6.8047485C7.4009399,63.3286133,10.3313599,61.2919922,13.8540039,61.2919922z   M17.1899414,59.828125c0.7644653-0.8184814,1.2421875-1.9085693,1.2421875-3.1142578  c0-2.5244141-2.0537109-4.578125-4.578125-4.578125s-4.578125,2.0537109-4.578125,4.578125  c0,1.2056885,0.4777222,2.2958984,1.2421875,3.1142578c-1.5143433,0.5-2.8322144,1.3260498-3.8305664,2.3795166V50.6074219  h14.3334961v11.6002197C20.022583,61.1541748,18.7044067,60.328125,17.1899414,59.828125z"></path><path d="M29.1875,55.5849609h35.125c0.5522461,0,1-0.4472656,1-1s-0.4477539-1-1-1h-35.125c-0.5522461,0-1,0.4472656-1,1  S28.6352539,55.5849609,29.1875,55.5849609z"></path><path d="M29.1875,63.0224609h23.25c0.5522461,0,1-0.4472656,1-1s-0.4477539-1-1-1h-23.25c-0.5522461,0-1,0.4472656-1,1  S28.6352539,63.0224609,29.1875,63.0224609z"></path></svg></g></g></svg>